# xmcd
#
# Track frame offsets: 
#        150
#        17157
#        28375
#        35742
#        48930
#        61367
#        71760
#
# Disc length: 1119 seconds
#
# Revision: 1
# Processed by: cddbd v1.5.2PL0 Copyright (c) Steve Scherf et al.
# Submitted via: ExactAudioCopyFreeDBPlugin 1.0
#
DISCID=63045d07
DTITLE=Bobby Womack - Bobby Womack:  The Collection [BCM Records] [box
DTITLE=set]
DYEAR=1972
DGENRE=Soul
TTITLE0=Across 110th Street
TTITLE1=If You Don't Want My Love
TTITLE2=Quicksand
TTITLE3=Harlem Love Theme
TTITLE4=Do It Right
TTITLE5=Hang On In There
TTITLE6=Across 110th Street - Part II
EXTD=The Collection CD 6 - 4 instrumentals from the original album are 
EXTD=missing on this CD!
EXTT0=
EXTT1=
EXTT2=
EXTT3=
EXTT4=
EXTT5=
EXTT6=
PLAYORDER=
